<svg width="120" height="163" viewBox="0 0 120 163" fill="none" xmlns="http://www.w3.org/2000/svg">
<path d="M120 60C120 46.1187 115.187 32.6668 106.381 21.9364C97.5744 11.206 85.32 3.86099 71.7054 1.15288C58.0908 -1.55523 43.9584 0.541116 31.7162 7.08472C19.474 13.6283 9.87938 24.2143 4.56723 37.039C-0.744921 49.8637 -1.44595 64.1335 2.58358 77.4171C6.61311 90.7007 15.1239 102.176 26.6658 109.888C38.2077 117.6 52.0665 121.072 65.881 119.711C79.6955 118.35 92.6108 112.242 102.426 102.426L60 60H120Z" fill="#1E1E1E"/>
<path d="M13.912 157.032C13.4 157.032 13.144 156.936 13.144 156.744C13.144 156.701 13.1493 156.664 13.16 156.632C13.1707 156.589 13.1813 156.541 13.192 156.488L16.904 146.04C16.968 145.859 17.208 145.768 17.624 145.768H18.184C18.6107 145.768 18.8507 145.859 18.904 146.04L22.616 156.504C22.648 156.589 22.664 156.669 22.664 156.744C22.664 156.936 22.424 157.032 21.944 157.032H21.656C21.4747 157.032 21.32 157.011 21.192 156.968C21.064 156.925 20.9787 156.856 20.936 156.76L20.088 154.328H15.656L14.824 156.76C14.7813 156.856 14.7013 156.925 14.584 156.968C14.4667 157.011 14.3227 157.032 14.152 157.032H13.912ZM16.168 152.856H19.576L18.12 148.632C18.0773 148.483 18.04 148.328 18.008 148.168C17.976 147.997 17.944 147.832 17.912 147.672H17.88C17.848 147.832 17.8107 147.997 17.768 148.168C17.736 148.328 17.6933 148.483 17.64 148.632L16.168 152.856ZM26.4765 157.112C25.6658 157.112 25.0365 156.888 24.5885 156.44C24.1512 155.992 23.9325 155.352 23.9325 154.52V149C23.9325 148.733 24.1778 148.6 24.6685 148.6H24.8445C25.3352 148.6 25.5805 148.733 25.5805 149V154.328C25.5805 154.765 25.6978 155.107 25.9325 155.352C26.1778 155.587 26.5405 155.704 27.0205 155.704C27.3725 155.704 27.7032 155.603 28.0125 155.4C28.3325 155.197 28.5992 154.947 28.8125 154.648V149C28.8125 148.733 29.0578 148.6 29.5485 148.6H29.7245C30.2152 148.6 30.4605 148.733 30.4605 149V154.504C30.4605 154.973 30.4765 155.352 30.5085 155.64C30.5405 155.928 30.5725 156.147 30.6045 156.296C30.6365 156.445 30.6525 156.547 30.6525 156.6C30.6525 156.685 30.6045 156.755 30.5085 156.808C30.4232 156.861 30.3165 156.904 30.1885 156.936C30.0605 156.968 29.9325 156.989 29.8045 157C29.6765 157.011 29.5805 157.016 29.5165 157.016C29.3778 157.016 29.2712 156.957 29.1965 156.84C29.1218 156.712 29.0685 156.563 29.0365 156.392C29.0045 156.211 28.9725 156.045 28.9405 155.896C28.6312 156.248 28.2578 156.541 27.8205 156.776C27.3938 157 26.9458 157.112 26.4765 157.112ZM35.4308 157.112C35.1854 157.112 34.9348 157.075 34.6788 157C34.4228 156.925 34.1881 156.803 33.9748 156.632C33.7721 156.461 33.6068 156.227 33.4788 155.928C33.3508 155.619 33.2868 155.24 33.2868 154.792V149.992H32.6468C32.4014 149.992 32.2788 149.8 32.2788 149.416V149.208C32.2788 148.824 32.4014 148.632 32.6468 148.632H33.2868L33.4948 147C33.5161 146.733 33.7188 146.6 34.1028 146.6H34.3588C34.7428 146.6 34.9348 146.733 34.9348 147V148.632H36.1188C36.3641 148.632 36.4868 148.824 36.4868 149.208V149.416C36.4868 149.8 36.3641 149.992 36.1188 149.992H34.9348V154.712C34.9348 155.117 35.0041 155.395 35.1428 155.544C35.2921 155.683 35.4841 155.752 35.7188 155.752C35.9001 155.752 36.0281 155.741 36.1028 155.72C36.1881 155.688 36.2628 155.672 36.3268 155.672C36.4121 155.672 36.4814 155.736 36.5348 155.864C36.5881 155.992 36.6308 156.125 36.6628 156.264C36.6948 156.403 36.7108 156.493 36.7108 156.536C36.7108 156.707 36.6361 156.835 36.4868 156.92C36.3374 156.995 36.1614 157.043 35.9588 157.064C35.7668 157.096 35.5908 157.112 35.4308 157.112ZM41.7635 157.112C40.5475 157.112 39.6142 156.744 38.9635 156.008C38.3235 155.272 38.0035 154.216 38.0035 152.84C38.0035 151.453 38.3235 150.387 38.9635 149.64C39.6142 148.893 40.5475 148.52 41.7635 148.52C42.9688 148.52 43.8862 148.893 44.5155 149.64C45.1555 150.376 45.4755 151.443 45.4755 152.84C45.4755 154.227 45.1608 155.288 44.5315 156.024C43.9128 156.749 42.9902 157.112 41.7635 157.112ZM41.7315 155.752C42.4462 155.752 42.9688 155.512 43.2995 155.032C43.6302 154.541 43.7955 153.805 43.7955 152.824C43.7955 151.832 43.6302 151.096 43.2995 150.616C42.9688 150.125 42.4462 149.88 41.7315 149.88C41.0275 149.88 40.5102 150.12 40.1795 150.6C39.8595 151.08 39.6995 151.821 39.6995 152.824C39.6995 153.805 39.8595 154.541 40.1795 155.032C40.5102 155.512 41.0275 155.752 41.7315 155.752ZM52.7609 154.008C52.5689 154.008 52.4249 153.928 52.3289 153.768L49.7369 149.224C49.6622 149.117 49.5929 149.005 49.5289 148.888C49.4755 148.771 49.4169 148.653 49.3529 148.536L49.2889 148.552C49.3102 148.691 49.3209 148.835 49.3209 148.984C49.3209 149.123 49.3209 149.261 49.3209 149.4V156.632C49.3209 156.899 49.0755 157.032 48.5849 157.032H48.3769C47.8862 157.032 47.6409 156.899 47.6409 156.632V146.168C47.6409 145.901 47.8862 145.768 48.3769 145.768H49.0329C49.2355 145.768 49.4009 145.8 49.5289 145.864C49.6569 145.917 49.7475 145.997 49.8009 146.104L52.7129 151.192C52.7769 151.309 52.8409 151.437 52.9049 151.576C52.9689 151.715 53.0169 151.853 53.0489 151.992C53.1022 151.853 53.1662 151.709 53.2409 151.56C53.3262 151.4 53.3955 151.267 53.4489 151.16L56.3289 146.104C56.3929 145.997 56.4835 145.917 56.6009 145.864C56.7289 145.8 56.8942 145.768 57.0969 145.768H57.7049C58.1955 145.768 58.4409 145.901 58.4409 146.168V156.632C58.4409 156.899 58.1955 157.032 57.7049 157.032H57.4969C57.0062 157.032 56.7609 156.899 56.7609 156.632V149.48C56.7609 149.331 56.7609 149.187 56.7609 149.048C56.7715 148.899 56.7822 148.755 56.7929 148.616L56.7289 148.6C56.6649 148.728 56.6009 148.851 56.5369 148.968C56.4835 149.075 56.4195 149.187 56.3449 149.304L53.7849 153.768C53.6889 153.928 53.5449 154.008 53.3529 154.008H52.7609ZM64.3573 157.112C63.1413 157.112 62.2079 156.744 61.5573 156.008C60.9173 155.272 60.5973 154.216 60.5973 152.84C60.5973 151.453 60.9173 150.387 61.5573 149.64C62.2079 148.893 63.1413 148.52 64.3573 148.52C65.5626 148.52 66.4799 148.893 67.1093 149.64C67.7493 150.376 68.0693 151.443 68.0693 152.84C68.0693 154.227 67.7546 155.288 67.1253 156.024C66.5066 156.749 65.5839 157.112 64.3573 157.112ZM64.3253 155.752C65.0399 155.752 65.5626 155.512 65.8933 155.032C66.2239 154.541 66.3893 153.805 66.3893 152.824C66.3893 151.832 66.2239 151.096 65.8933 150.616C65.5626 150.125 65.0399 149.88 64.3253 149.88C63.6213 149.88 63.1039 150.12 62.7733 150.6C62.4533 151.08 62.2933 151.821 62.2933 152.824C62.2933 153.805 62.4533 154.541 62.7733 155.032C63.1039 155.512 63.6213 155.752 64.3253 155.752ZM74.1066 157.112C73.648 157.112 73.2106 157.011 72.7946 156.808C72.3893 156.595 72.0213 156.296 71.6906 155.912C71.6266 156.264 71.5413 156.552 71.4346 156.776C71.392 156.883 71.328 156.952 71.2426 156.984C71.1573 157.016 71.0346 157.032 70.8746 157.032H70.7786C70.3733 157.032 70.1706 156.899 70.1706 156.632V145.352C70.1706 145.085 70.4106 144.952 70.8906 144.952H71.0666C71.5573 144.952 71.8026 145.085 71.8026 145.352V149.256C72.0693 149.043 72.368 148.867 72.6986 148.728C73.04 148.589 73.44 148.52 73.8986 148.52C74.8906 148.52 75.6853 148.893 76.2826 149.64C76.88 150.387 77.1786 151.443 77.1786 152.808C77.1786 153.672 77.0506 154.429 76.7946 155.08C76.5493 155.72 76.1973 156.221 75.7386 156.584C75.28 156.936 74.736 157.112 74.1066 157.112ZM73.7226 155.72C74.288 155.72 74.7253 155.464 75.0346 154.952C75.344 154.429 75.4986 153.688 75.4986 152.728C75.4986 151.821 75.3333 151.128 75.0026 150.648C74.6826 150.157 74.192 149.912 73.5306 149.912C73.2213 149.912 72.9173 149.965 72.6186 150.072C72.32 150.168 72.048 150.312 71.8026 150.504V154.664C72.08 154.984 72.384 155.24 72.7146 155.432C73.0453 155.624 73.3813 155.72 73.7226 155.72ZM80.048 157.032C79.5573 157.032 79.312 156.899 79.312 156.632V149C79.312 148.733 79.5573 148.6 80.048 148.6H80.208C80.6987 148.6 80.944 148.733 80.944 149V156.632C80.944 156.899 80.6987 157.032 80.208 157.032H80.048ZM80.128 147.576C79.8293 147.576 79.6107 147.544 79.472 147.48C79.344 147.405 79.28 147.304 79.28 147.176V146.136C79.28 146.008 79.344 145.912 79.472 145.848C79.6107 145.773 79.8293 145.736 80.128 145.736C80.4267 145.736 80.64 145.773 80.768 145.848C80.9067 145.912 80.976 146.008 80.976 146.136V147.176C80.976 147.304 80.9067 147.405 80.768 147.48C80.64 147.544 80.4267 147.576 80.128 147.576ZM85.5944 157.112C85.349 157.112 85.0984 157.075 84.8424 157C84.597 156.925 84.3677 156.803 84.1544 156.632C83.941 156.461 83.7704 156.227 83.6424 155.928C83.525 155.619 83.4664 155.24 83.4664 154.792V145.352C83.4664 145.085 83.7064 144.952 84.1864 144.952H84.3624C84.853 144.952 85.0984 145.085 85.0984 145.352V154.712C85.0984 155.117 85.173 155.395 85.3224 155.544C85.4717 155.683 85.6584 155.752 85.8824 155.752C86.0637 155.752 86.1917 155.741 86.2664 155.72C86.3517 155.688 86.4264 155.672 86.4904 155.672C86.5757 155.672 86.645 155.736 86.6984 155.864C86.7517 155.992 86.7944 156.125 86.8264 156.264C86.8584 156.403 86.8744 156.493 86.8744 156.536C86.8744 156.707 86.7997 156.835 86.6504 156.92C86.501 156.995 86.325 157.043 86.1224 157.064C85.9304 157.096 85.7544 157.112 85.5944 157.112ZM91.2691 157.112C89.9038 157.112 88.8958 156.755 88.2451 156.04C87.5945 155.315 87.2691 154.259 87.2691 152.872C87.2691 151.891 87.4185 151.08 87.7171 150.44C88.0158 149.8 88.4478 149.32 89.0131 149C89.5785 148.68 90.2558 148.52 91.0451 148.52C91.8131 148.52 92.4425 148.691 92.9331 149.032C93.4238 149.373 93.7865 149.853 94.0211 150.472C94.2665 151.091 94.3891 151.832 94.3891 152.696C94.3891 152.76 94.3518 152.851 94.2771 152.968C94.2025 153.085 94.1171 153.192 94.0211 153.288C93.9251 153.384 93.8451 153.432 93.7811 153.432H88.9971C89.0611 154.243 89.2798 154.835 89.6531 155.208C90.0265 155.571 90.5705 155.752 91.2851 155.752C91.7225 155.752 92.0905 155.699 92.3891 155.592C92.6985 155.485 92.9438 155.384 93.1251 155.288C93.3171 155.181 93.4451 155.128 93.5091 155.128C93.5945 155.128 93.6851 155.192 93.7811 155.32C93.8771 155.437 93.9625 155.571 94.0371 155.72C94.1118 155.859 94.1491 155.965 94.1491 156.04C94.1491 156.168 94.0638 156.296 93.8931 156.424C93.7331 156.552 93.5145 156.669 93.2371 156.776C92.9598 156.872 92.6505 156.952 92.3091 157.016C91.9678 157.08 91.6211 157.112 91.2691 157.112ZM88.9971 152.152H92.7091C92.7091 151.416 92.5705 150.856 92.2931 150.472C92.0158 150.077 91.5891 149.88 91.0131 149.88C90.4265 149.88 89.9625 150.067 89.6211 150.44C89.2798 150.803 89.0718 151.373 88.9971 152.152Z" fill="#A75151"/>
</svg>
